<svg xmlns="http://www.w3.org/2000/svg" viewBox="0 0 128 128" width="64px" height="64px"><path fill="#fff" d="M64 37A23 23 0 1 0 64 83A23 23 0 1 0 64 37Z"/><path fill="#dfe8f4" d="M26.9,115.6C34.3,102.7,48.1,94,64,94h0c15.9,0,29.7,8.7,37.1,21.6L101,119H27L26.9,115.6z"/><path fill="#444b54" d="M101.1 118.6c-1 0-2.1-.5-2.6-1.5C91.4 104.7 78.2 97 64 97c-14.2 0-27.4 7.7-34.5 20.1-.8 1.4-2.6 1.9-4.1 1.1-1.4-.8-1.9-2.7-1.1-4.1C32.4 99.9 47.6 91 64 91c16.4 0 31.6 8.9 39.7 23.1.8 1.4.3 3.3-1.1 4.1C102.1 118.5 101.6 118.6 101.1 118.6zM105 43c0-8.3-6.7-15-15-15 0 0 0 0 0 0-5.2-9-14.9-15-26-15-16.5 0-30 13.5-30 30 0 5.3 1.4 10.5 4.1 15.1 0 .6-.1 1.3-.1 1.9 0 14.3 11.7 26 26 26 8.8 0 16.5-4.4 21.2-11 8.2-.1 14.8-6.8 14.8-15 0-1.8-.3-3.5-.9-5.1C102.7 52.2 105 47.9 105 43zM84.5 47.2c-.6 1-1.2 1.9-1.9 2.9-.4.6-.6 1.3-.3 2 1.2 2.7 1.8 5.8 1.6 9C83.4 71.3 75 79.5 64.9 80 53.5 80.5 44 71.3 44 60c0 0 0 0 0 0 0-1.1.9-1.9 2-1.9h7.1c3.1 0 6.4-.4 9.7-1.4 6.6-2 12-6 15.3-10.7 0 0 0 0 0 0 .4-.6.8-1.2 1.2-1.9.9-1.6 3.1-2 4.6-.8C85.1 44.2 85.3 45.9 84.5 47.2z"/></svg>