<svg id="SvgjsSvg1026" width="288" height="288" xmlns="http://www.w3.org/2000/svg" version="1.1" xmlns:xlink="http://www.w3.org/1999/xlink" xmlns:svgjs="http://svgjs.com/svgjs"><circle id="SvgjsCircle1034" r="144" cx="144" cy="144" fill="#1e90ff" transform="matrix(0.9167,0,0,0.9167,11.995200000000011,11.995200000000011)"></circle><defs id="SvgjsDefs1027"></defs><g id="SvgjsG1028" transform="matrix(0.88,0,0,0.88,18.063949127197276,18.528368225097665)"><svg xmlns="http://www.w3.org/2000/svg" width="288" height="288" viewBox="0 0 313 313"><g transform="matrix(.1 0 0 -.1 0 313)" fill="#000000" class="color000 svgShape"><path d="m1579 2849c-95-14-184-83-230-175-22-44-24-64-27-198-3-120 0-158 13-192 15-39 64-93 109-119 15-9 16-18 6-90-6-44-18-90-26-102-28-43-157-92-299-113-113-16-142-27-193-73-56-52-85-110-122-244-27-100-56-291-45-302 3-2 13 3 22 11 73 64 224 72 239 13 4-17 13-25 27-25 23 0 235 139 345 227 63 50 75 65 88 108 15 52 58 334 70 464 8 83 26 111 72 111s69-24 76-77c3-27 15-124 27-218 27-228 45-303 78-338 33-37 223-177 315-234 81-50 103-53 112-18 15 59 155 52 243-12l23-17-7 74c-16 175-67 350-124 433-48 68-115 102-231 117-92 12-219 50-269 81-38 23-48 47-59 140-7 58-6 73 6 83 8 6 36 31 62 56 61 57 75 115 68 276-4 90-10 121-30 166-35 76-80 123-151 157-69 33-120 41-188 30z" fill="#000000" class="color000 svgShape"></path><path d="M1551 1358c-137-187-351-389-543-511-43-27-78-53-78-57 0-18 126-134 191-177 161-103 265-126 547-121 195 4 212 6 287 32 44 15 106 41 137 58 69 37 173 121 216 176l32 40-54 30c-174 99-425 329-566 520-45 61-85 112-89 112-3 0-39-46-80-102zM556 919c-2-8-16-63-30-123s-29-112-32-115-14 4-24 17c-25 30-30 28-30-13 0-44 59-115 96-115 31 0 45 29 78 163 29 117 28 122-23 171-22 22-32 25-35 15zM2695 877c-25-24-45-52-45-62 0-34 62-255 72-255 15 0 67 62 89 107 28 58 28 102 0 124-18 15-21 25-16 47 8 39-10 82-35 82-11 0-40-19-65-43zm51-64c-5-12-10-13-18-5s-8 15 3 28c15 18 25 4 15-23zm33-103c-6-16-15-30-20-30-13 0-11 34 3 48 21 21 27 13 17-18zM646 757c-4-18-16-84-26-147l-20-114 28-22c15-13 30-19 33-16 7 7 59 244 59 267 0 7-15 24-34 38l-34 26zM2537 726l-49-44 12-138c7-77 14-145 16-153 8-25 75 48 68 74-7 30 20 53 34 29 9-17 11-17 36-1 14 10 26 24 26 32 0 19-83 245-90 245-3-1-27-20-53-44zm47-113c11-31 13-50 6-57-5-5-11-8-14-5-6 7-18 109-13 109 3 0 12-21 21-47zM807 673c-3-16-13-91-23-167l-17-140 33-28c18-15 37-25 41-22 4 2 11 29 14 59 4 30 10 55 14 55 22 0 30-27 24-85-5-61-5-62 26-84 18-13 34-21 36-19 6 6 55 287 55 314 0 15-12 29-36 43-20 12-39 20-41 17-3-2-7-23-10-45-3-23-9-41-13-41-19 0-28 28-21 67 9 47 8 51-36 81-39 28-39 28-46-5zM2397 617c-25-20-28-28-25-71 4-62-17-75-27-17-4 23-9 41-11 41-22 0-64-34-64-52 0-52 44-268 54-268 6 0 22 7 34 16 20 14 22 23 20 76-3 68 15 92 27 36 14-70 12-69 45-50 35 20 34 15 15 146-29 193-23 180-68 143zM1022 408c-17-149-16-184 9-209 14-14 29-19 46-16 15 3 27-1 30-9 5-14 63-38 63-26 0 4 7 61 15 127 20 161 20 160-14 175-17 6-34 9-39 6s-10-31-11-63c-4-90-15-146-28-151-16-5-16 25-2 143 11 87 10 90-11 107-40 32-46 24-58-84zM2148 474l-48-24v-155c0-85 2-155 5-155 2 0 20 7 39 17 27 12 36 23 38 46 4 36 23 47 31 17 6-23 25-26 51-7 16 12 15 20-16 147-19 73-38 135-43 136-6 2-31-8-57-22zm46-176c-15-23-24-1-23 55l1 62 13-54c8-30 11-59 9-63zM1938 451c-27-24-32-36-36-88-5-66 13-114 48-133 31-17 24-38-13-42l-34-3 11-45c9-36 16-46 35-48 70-10 111 38 111 132 0 54-3 61-35 92-43 40-44 52-5 65 24 9 30 17 30 39 0 48-9 60-46 60-23 0-44-9-66-29zM1225 417c-2-7-6-76-10-153l-6-142 32-11c18-6 34-11 35-11 2 0 4 16 4 35 0 49 15 44 30-10 7-25 16-45 20-45 3 0 16 11 29 23l22 24-22 57-23 58 24 42c20 38 21 46 10 80l-12 38-29-44c-30-45-32-45-29 13 1 32-2 36-35 46-27 9-37 9-40 0zM1417 374c-11-11-8-273 3-295 11-20 64-27 75-9 4 6 12 4 21-5 16-16 50-20 58-7 2 4 6 72 7 152l3 145-37 3-36 3-3-117c-2-83-7-119-15-122-10-3-13 26-13 122 0 102-3 126-14 126-8 0-21 2-28 5-8 3-17 2-21-1zM1743 358c-6-7-14-34-18-60-4-27-11-48-15-48s-12 25-19 55c-12 54-13 55-47 55h-34v-109c0-59 3-129 6-155 6-43 9-47 33-44 25 3 26 6 25 55-2 59 10 63 20 7 9-45 27-40 42 12l12 39 3-50c4-46 6-50 32-53l28-3-3 153-3 153-26 3c-14 2-31-3-36-10z" fill="#000000" class="color000 svgShape"></path></g></svg></g></svg>